<?xml version="1.0" encoding="UTF-8"?><svg id="Layer_1" xmlns="http://www.w3.org/2000/svg" viewBox="0 0 841.8898 595.2756"><path d="m67.6708,377.6272c-9.4032,0-17.4925-1.1321-24.2723-3.3909-6.7798-2.2562-12.3385-4.9616-16.6789-8.1083-4.3389-3.1467-7.5508-6.2513-9.6268-9.3192-2.0804-3.0652-3.2119-5.4055-3.3899-7.0209-.1824-1.773.4488-3.1046,1.898-3.9924,1.4448-.8852,2.8014-1.3317,4.0682-1.3317h4.0682c1.0844,0,2.0334.1628,2.847.4833.8136.3257,1.8524,1.2109,3.1192,2.6634,2.3468,2.7448,5.0599,5.3661,8.1364,7.8666,3.0721,2.5031,7.0035,4.4783,11.7955,5.9308,4.7891,1.4525,10.8024,2.1774,18.0354,2.1774,10.848,0,19.7966-1.8517,26.8471-5.5658,7.052-3.7114,10.5773-9.1983,10.5773-16.4609,0-4.5177-1.4022-8.1477-4.2036-10.8925-2.8058-2.7422-7.5508-5.1639-14.2379-7.2625-6.6901-2.096-15.7284-4.2735-27.1193-6.5376-11.3895-2.4191-20.1144-5.3241-26.1703-8.7124-6.0589-3.3909-10.1697-7.3019-12.3385-11.7409-2.1702-4.4363-3.2546-9.2377-3.2546-14.4042,0-5.6472,1.8053-11.1709,5.4233-16.5817,3.615-5.4029,8.9927-9.8392,16.1359-13.3116,7.1403-3.4697,16.1359-5.2059,26.984-5.2059,8.8559,0,16.4067,1.0533,22.645,3.1467,6.2369,2.0986,11.3439,4.6412,15.3223,7.625,3.974,2.9891,6.9152,5.9308,8.8132,8.8359,1.8995,2.905,2.9367,5.2453,3.1192,7.0209.178,1.6154-.3649,2.905-1.6273,3.8716-1.2668.9692-2.7116,1.4525-4.3389,1.4525h-4.0682c-1.4492,0-2.6234-.2784-3.5253-.8458-.9063-.5647-1.72-1.3317-2.4409-2.3009-1.8097-2.5793-3.9784-4.9984-6.5091-7.2625-2.5336-2.2562-5.9235-4.0712-10.1697-5.4449-4.2492-1.3685-9.9917-2.0592-17.2203-2.0592-10.848,0-18.8947,1.9805-24.1355,5.9308-5.2467,3.9583-7.8657,8.9987-7.8657,15.1292,0,3.5538,1.0858,6.6584,3.2546,9.3218,2.1702,2.6607,6.2384,5.0825,12.2046,7.2599,5.9662,2.1801,14.644,4.4783,26.0335,6.9001,11.569,2.2615,20.7,5.0457,27.3915,8.3499,6.6857,3.3095,11.4321,7.2258,14.2365,11.7409,2.8014,4.5204,4.2036,9.8471,4.2036,15.9776,0,6.4562-2.0334,12.429-6.1016,17.9134-4.0682,5.487-10.1271,9.8865-18.1693,13.1908-8.0466,3.3069-17.9457,4.9643-29.6956,4.9643Z" style="fill:#fff; stroke-width:0px;"/><path d="m201.88,377.6272c-17.5396,0-31.4582-5.1219-41.7648-15.3735-10.3051-10.2463-16.1815-23.6787-17.6264-40.3025-.1824-2.4217-.2722-5.6472-.2722-9.6843,0-4.0318.0898-7.2599.2722-9.6816.9019-10.9713,3.796-20.6555,8.6778-29.0475,4.8818-8.3893,11.6146-14.9243,20.2041-19.6075,8.5851-4.678,18.7549-7.0209,30.5092-7.0209,12.6519,0,23.4116,2.5031,32.2719,7.5042,8.8559,5.0037,15.6828,12.1874,20.4748,21.5433,4.7877,9.3612,7.1859,20.4979,7.1859,33.405v3.6326c0,1.6154-.5885,2.905-1.7626,3.8716-1.1771.9692-2.669,1.4525-4.4743,1.4525h-96.5449v2.4217c.3605,7.2625,2.2585,14.16,5.6955,20.6976,3.4326,6.535,8.3129,11.8617,14.644,15.9749,6.3267,4.1159,13.8304,6.1725,22.5097,6.1725,7.7715,0,14.2365-1.048,19.3905-3.1467,5.1526-2.096,9.2619-4.3943,12.3385-6.8974,3.0721-2.5005,5.0599-4.3969,5.9662-5.6892,1.6273-2.096,2.8897-3.3463,3.7975-3.7534.9019-.3992,2.3468-.6041,4.3389-.6041h4.3389c1.6273,0,3.025.4465,4.2036,1.3317,1.1741.8878,1.6699,2.0566,1.4919,3.5091-.1824,2.2615-1.5861,5.0457-4.2036,8.3526-2.6234,3.3095-6.3311,6.577-11.1187,9.8024-4.7936,3.2307-10.6244,5.8941-17.4925,7.9901-6.8725,2.0934-14.5557,3.1467-23.0511,3.1467Zm-42.8492-72.8643h86.2398v-.9666c0-8.0689-1.72-15.3314-5.1526-21.7876-3.437-6.4509-8.4071-11.5754-14.9162-15.3708-6.5076-3.7902-14.2835-5.6892-23.3218-5.6892s-16.7715,1.899-23.188,5.6892c-6.4194,3.7954-11.3012,8.9199-14.644,15.3708-3.3472,6.4562-5.0172,13.7187-5.0172,21.7876v.9666Z" style="fill:#fff; stroke-width:0px;"/><path d="m486.8937,372.1935c0,.3991,0,1.3508-.4519,2.3637-.0905.1229-.1506.2764-.2411.4298-.2411.4298-.5424.7982-.9341,1.1666-.5424.4913-1.1752.8597-1.8984,1.1051-.7232.2456-1.5368.3684-2.4407.3684h-4.6102c-.874,0-1.6874-.1227-2.3806-.3684-.7232-.2455-1.356-.6138-1.8984-1.1051-1.0847-1.0131-1.6271-2.3025-1.6271-3.9601v-69.2885c0-10.8675-1.7176-19.2793-5.1527-25.2962-3.435-5.9864-7.9549-10.2229-13.5597-12.6788-4.0678-1.8113-8.3466-2.9472-12.8966-3.4076-.1808-.0615-.3314-.0615-.4822-.0615-.8135-.1227-1.5969-.1842-2.3804-.1842-.5725-.0615-1.1149-.0615-1.6573-.0615h-.7533c-.5122,0-1.0246,0-1.5368.0615-1.4765.0307-2.9831.1842-4.4897.4604-.4822.0615-.9944.1536-1.4765.2764-.2411.0307-.5124.0615-.7533.1227-2.923.614-5.8156,1.535-8.6181,2.7937-5.5745,2.4559-10.1846,6.6924-13.8006,12.6788-3.6159,6.017-5.4238,14.4287-5.4238,25.2962v69.2885c0,.8288-.1508,1.5657-.3917,2.2103-.3014.6755-.6932,1.2588-1.2355,1.7499-1.0847.9824-2.531,1.4735-4.3391,1.4735h-4.6102c-1.7779,0-3.2242-.4911-4.3089-1.4735-.5425-.4911-.9341-1.0744-1.2355-1.7499-.2411-.6446-.3917-1.3815-.3917-2.2103v-69.2885c0-10.8675-1.8079-19.2793-5.4238-25.2962-3.6159-5.9864-8.2261-10.2229-13.8309-12.6788-2.8023-1.2588-5.6648-2.1797-8.6179-2.7937-.1506-.0305-.3013-.0613-.4519-.092-.5725-.1229-1.1752-.2456-1.7477-.3071-2.0188-.3684-4.0378-.5218-6.0265-.5218h-.7835c-.5424,0-1.0847,0-1.6271.0615-.7835,0-1.567.0615-2.3806.1842-.2409,0-.482.0307-.693.092-4.4596.4606-8.6782,1.5964-12.6859,3.377-5.6046,2.4559-10.1245,6.6924-13.5597,12.6788-3.435,6.017-5.1526,14.4287-5.1526,25.2962v69.2885c0,.8288-.1506,1.5657-.3917,2.2103-.3014.6755-.6932,1.2588-1.2355,1.7499-1.0847.9824-2.531,1.4735-4.3391,1.4735h-4.6102c-1.7779,0-3.2242-.4911-4.3089-1.4735-.1808-.1842-.3616-.3684-.5124-.5526-.1506-.1842-.3013-.3991-.4217-.614-.1206-.1227-.1808-.2762-.211-.4298-.0603-.1535-.1206-.2762-.1808-.3989-.0603-.1536-.1206-.3071-.1206-.4606-.0601-.2456-.1205-.4913-.1506-.7368-.0302-.3376-.0302-.5833-.0302-.7675v-73.2181c.1508-11.1744,2.3806-20.5991,6.6292-28.1513,2.712-4.8198,5.9964-8.9029,9.9137-12.249,2.5009-2.1797,5.243-4.0523,8.2261-5.618,7.7139-4.0216,16.3318-6.0477,25.9139-6.0477.6932,0,1.3862,0,2.049.0613.8438-.0613,1.7176-.0613,2.5915-.0613,19.5258,0,33.6882,7.2143,42.4265,21.5815,8.7385-14.3673,22.9009-21.5815,42.3966-21.5815.874,0,1.7477,0,2.5914.0613.6932-.0613,1.3862-.0613,2.0792-.0613,9.5823,0,18.2304,2.0261,25.9141,6.0477,2.9831,1.5657,5.7251,3.4076,8.196,5.5566,3.9474,3.377,7.2621,7.4906,9.9739,12.3105,4.068,7.245,6.2375,16.1479,6.5689,26.7085.0302,43.3782,0,73.2486,0,74.6608Z" style="fill:#fff; stroke-width:0px;"/><path d="m575.7701,377.6272c-13.0182,0-23.9148-2.4217-32.6809-7.2625-8.772-4.8408-15.4591-11.4572-20.0688-19.8492-4.6096-8.3893-7.0976-17.7505-7.4581-28.0809-.1824-2.4191-.2707-5.81-.2707-10.1675,0-4.3549.0883-7.7458.2707-10.1649.3605-10.488,2.8485-19.8886,7.4581-28.2017,4.6096-8.3105,11.2968-14.8875,20.0688-19.7283,8.7661-4.8408,19.6627-7.2625,32.6809-7.2625s23.906,2.4217,32.675,7.2625,15.4606,11.4178,20.0688,19.7283c4.6082,8.3132,7.0917,17.7137,7.4566,28.2017.1824,2.4191.2707,5.81.2707,10.1649,0,4.3575-.0883,7.7485-.2707,10.1675-.3649,10.3304-2.8485,19.6916-7.4566,28.0809-4.6082,8.392-11.2997,15.0084-20.0688,19.8492-8.7691,4.8408-19.6627,7.2625-32.675,7.2625Zm0-14.0418c12.6474,0,22.9584-3.63,30.9153-10.8925,7.951-7.2625,12.2002-17.7505,12.7416-31.4692.1824-2.4191.2766-5.4029.2766-8.9567,0-3.5459-.0942-6.535-.2766-8.9567-.5414-13.8763-4.7906-24.4063-12.7416-31.5874-7.9569-7.1811-18.2679-10.7743-30.9153-10.7743-12.6592,0-22.9643,3.5932-30.9183,10.7743-7.9584,7.1811-12.2046,17.7111-12.746,31.5874-.1824,2.4217-.2722,5.4108-.2722,8.9567,0,3.5538.0898,6.5376.2722,8.9567.5414,13.7187,4.7877,24.2067,12.746,31.4692,7.9539,7.2625,18.259,10.8925,30.9183,10.8925Z" style="fill:#fff; stroke-width:0px;"/><path d="m673.4646,377.6272c-1.8068,0-3.2516-.5019-4.3374-1.5084s-1.6273-2.3458-1.6273-4.0233v-119.657c0-1.6721.5414-3.0168,1.6273-4.0206,1.0858-1.0065,2.5307-1.5084,4.3374-1.5084h4.6111c1.8068,0,3.2546.5019,4.3404,1.5084,1.0829,1.0038,1.6273,2.3485,1.6273,4.0206v119.657c0,1.6775-.5444,3.0168-1.6273,4.0233-1.0858,1.0065-2.5336,1.5084-4.3404,1.5084h-4.6111Z" style="fill:#fff; stroke-width:0px;"/><path d="m763.6739,377.6272c-8.6778,0-16.6759-1.6154-24.0001-4.8434-7.3213-3.2255-13.2448-7.541-17.7617-12.9491-4.5228-5.4055-6.7798-11.4992-6.7798-18.2758,0-10.9739,4.9701-19.7677,14.9162-26.3868,9.9402-6.6138,22.8672-10.8925,38.778-12.8283l42.8506-5.3267v-8.4708c0-8.5522-2.9426-15.2894-8.8161-20.2143-5.8764-4.9196-15.2311-7.3834-28.0668-7.3834-9.4017,0-16.9967,1.6574-22.7819,4.9643-5.7882,3.3095-9.7607,7.625-11.9324,12.9491-.9063,2.4217-2.6219,3.6326-5.1526,3.6326h-4.3374c-2.1687,0-3.7077-.5227-4.6111-1.5733-.9063-1.048-1.3566-2.3009-1.3566-3.7534,0-2.2562.9505-5.0825,2.8485-8.4708,1.898-3.3909,4.8347-6.7372,8.8132-10.0467,3.9755-3.3069,9.1281-6.0884,15.4577-8.3526,6.3267-2.2562,14.0099-3.3883,23.0526-3.3883,10.6641,0,19.4802,1.2949,26.4425,3.8742,6.9564,2.5819,12.3797,5.9308,16.2698,10.0441,3.8872,4.1159,6.6445,8.6783,8.2717,13.6767,1.6273,5.0063,2.4394,9.9259,2.4394,14.7667v80.6075c0,1.6154-.5414,2.905-1.6273,3.8742-1.0829.9692-2.5336,1.4525-4.3374,1.4525h-4.6111c-1.8097,0-3.2546-.4833-4.3374-1.4525-1.0858-.9692-1.6273-2.2589-1.6273-3.8742v-11.3758c-2.1717,2.905-5.2467,5.81-9.2222,8.715-3.9784,2.905-9.0839,5.3661-15.3223,7.3834-6.2354,2.0146-14.0599,3.0258-23.4587,3.0258Zm2.7131-14.0418c8.3129,0,15.9079-1.6101,22.7789-4.8408,6.8711-3.2255,12.3414-8.1871,16.4081-14.8875,4.0667-6.6952,6.103-15.1292,6.103-25.2941v-8.2317l-34.985,4.3575c-14.8279,1.7782-26.0335,4.8408-33.6284,9.1983-7.592,4.3575-11.3909,9.8445-11.3909,16.4609,0,5.3241,1.7185,9.6816,5.1555,13.0726,3.4311,3.3883,7.8156,5.9308,13.1506,7.625,5.3321,1.6942,10.8024,2.5399,16.4081,2.5399Z" style="fill:#fff; stroke-width:0px;"/></svg>